<svg width="794" height="558" viewBox="0 0 794 558" fill="none" xmlns="http://www.w3.org/2000/svg">
<path d="M480.63 259.916L480.334 260.064V258.88L480.038 259.028V257.845L479.742 257.993V256.809L479.446 256.957V255.774L479.151 255.922V254.738L478.855 254.886V253.703L478.559 253.851V252.667L478.263 252.815V251.632L477.968 251.78V250.596L477.672 250.744V249.561L477.376 249.709V248.525L477.08 248.673V247.49L476.784 247.638V246.454L476.489 246.602V245.419L476.193 245.567V244.383L475.897 244.531V243.348L475.601 243.496V242.312L475.306 242.46V241.277L475.01 241.424V240.241L474.714 240.389V239.206L474.418 239.353V238.17L474.123 238.318V237.134L472.939 237.578V237.134L471.756 237.578V237.134L470.573 237.578V237.134L456.08 241.572V127.073L455.785 127.221V126.038L455.489 126.186V125.002L455.193 125.15V123.967L454.897 124.115V122.931L454.602 123.079V121.896L454.306 122.044V120.86L454.01 121.008V119.825L453.714 119.973V118.789L453.419 118.937V117.754L453.123 117.902V116.718L452.827 116.866V115.683L452.531 115.831V114.647L452.235 114.795V113.612L451.94 113.759V112.576L451.644 112.724V111.54L451.348 111.688V110.505L451.052 110.653V109.469L450.757 109.617V108.434L450.461 108.582V107.398L450.165 107.546V106.363L449.869 106.511V103.552L449.573 103.7V102.517L449.278 102.665V101.481L448.095 101.925V101.481L446.912 101.925V101.481L445.728 101.925V101.481L441.736 102.665L328.751 298.822L329.934 298.526L329.046 300.005L330.229 299.71L329.342 301.189L330.525 300.893L329.638 302.372L330.821 302.076L329.934 303.556L331.117 303.26L330.229 304.739L331.413 304.443L330.525 305.923L331.708 305.627L330.821 307.106L332.004 306.81L331.117 308.29L332.3 307.994L331.413 309.473L332.596 309.177L331.708 310.657L332.891 310.361L332.004 311.84L333.187 311.544L332.3 313.023L333.483 312.728L332.596 314.207L333.779 313.911L332.891 315.39L334.074 315.094L333.187 316.574L334.37 316.278L333.483 317.757L334.666 317.461L333.779 318.941L334.962 318.645L334.074 320.124L335.258 319.828L334.37 321.308L335.553 321.012L334.666 322.491L335.849 322.195L334.962 323.675L336.145 323.379L335.258 324.858L336.441 324.562L335.553 326.041L337.032 325.598L336.736 326.041L338.215 325.598L337.92 326.041L339.398 325.598L339.103 326.041L426.355 299.118V317.609L426.651 317.461V318.645L426.947 318.497V319.68L427.243 319.532V320.716L427.538 320.568V321.751L427.834 321.603V322.787L428.13 322.639V323.822L428.426 323.675V324.858L428.722 324.71V325.894L429.017 325.746V326.929L429.313 326.781V327.965L429.609 327.817V329L429.905 328.852V330.036L430.2 329.888V331.071L430.496 330.923V332.107L430.792 331.959V333.142L431.088 332.994V334.178L431.384 334.03V335.213L431.679 335.065V336.249L431.975 336.101V337.284L432.271 337.136V338.32L432.567 338.172V339.355L432.862 339.207V340.391L433.158 340.243V341.426L434.341 340.983V341.426L435.524 340.983V341.426L436.707 340.983V341.426L456.82 335.213V287.875L481.517 280.331V260.804L481.221 260.951V259.916H480.63ZM426.06 207.548V249.117L396.63 258.141L426.06 207.548Z" fill="#4C4435"/>
<path d="M452.679 128.257L456.672 127.073V268.644L481.369 261.099V280.626L456.672 288.171V335.509L436.56 341.722V294.384L339.103 324.414L452.679 128.257ZM436.56 274.857V190.24L376.518 293.496L436.56 274.857Z" fill="#E4A87F"/>
<path d="M559.601 208.14L542.002 208.436L542.446 215.389L559.896 215.093L559.601 208.14Z" fill="#5B5B5B"/>
<path d="M569.065 378.705L552.798 382.995L553.242 389.208L569.361 384.77L569.065 378.705Z" fill="#5B5B5B"/>
<path d="M460.813 303.852L462.735 324.414L470.425 323.231L468.651 302.816L460.813 303.852Z" fill="#5B5B5B"/>
<path d="M625.262 282.254L625.706 298.674L630.586 297.934L629.994 281.662L625.262 282.254Z" fill="#5B5B5B"/>
<path d="M493.052 231.513L479.446 247.046L485.214 251.928L498.524 236.543L493.052 231.513Z" fill="#5B5B5B"/>
<path d="M613.579 339.651L604.114 353.409L607.811 356.663L617.276 342.906L613.579 339.651Z" fill="#5B5B5B"/>
<path d="M490.094 371.752L505.031 381.812L509.467 376.042L494.679 365.835L490.094 371.752Z" fill="#5B5B5B"/>
<path d="M598.938 231.809L609.882 243.643L613.431 239.058L602.487 227.223L598.938 231.809Z" fill="#5B5B5B"/>
<path d="M521.298 388.025L538.305 390.244L540.227 383.735L523.221 381.368L521.298 388.025Z" fill="#5B5B5B"/>
<path d="M572.319 217.46L587.699 223.821L589.474 217.755L574.241 211.246L572.319 217.46Z" fill="#5B5B5B"/>
<path d="M584.298 377.374L597.607 367.314L595.389 362.433L581.931 372.492L584.298 377.374Z" fill="#5B5B5B"/>
<path d="M510.207 227.519L527.361 219.087L524.256 212.578L506.953 220.862L510.207 227.519Z" fill="#5B5B5B"/>
<path d="M624.227 328.112L628.811 312.284L624.227 310.952L619.642 326.929L624.227 328.112Z" fill="#5B5B5B"/>
<path d="M470.277 287.283L476.637 267.313L469.242 265.094L462.883 285.36L470.277 287.283Z" fill="#5B5B5B"/>
<path d="M626.889 265.981L620.825 251.04L616.241 253.851L622.452 268.792L626.889 265.981Z" fill="#5B5B5B"/>
<path d="M485.362 355.776L475.601 339.207L468.946 343.349L478.855 359.918L485.362 355.776Z" fill="#5B5B5B"/>
<path d="M551.171 213.022C502.369 213.761 461.552 260.064 466.58 314.207C471.313 366.279 516.27 396.013 561.227 383.883C601.009 373.232 628.811 332.55 627.48 290.834C626.001 247.786 593.91 212.282 551.171 213.022ZM559.896 361.989C527.213 369.681 496.01 347.196 493.052 310.361C489.946 272.342 518.045 239.206 552.65 237.43C584.002 235.803 608.551 261.247 609.882 293.349C611.065 324.71 589.621 355.036 559.896 361.989Z" fill="#5B5B5B"/>
<path d="M552.502 237.43C517.897 239.206 489.798 272.342 492.904 310.361C496.01 347.344 527.213 369.681 559.748 361.989C589.473 355.036 610.769 324.71 609.586 293.349C608.551 261.099 584.002 235.803 552.502 237.43ZM559.305 352.521C531.946 358.586 506.214 339.503 503.7 308.733C501.186 277.224 524.404 249.561 553.094 247.638C579.565 245.862 600.565 267.165 601.748 294.532C602.931 321.308 584.741 346.9 559.305 352.521Z" fill="#444444"/>
<path d="M553.241 247.638C524.552 249.561 501.333 277.224 503.848 308.733C506.214 339.503 532.094 358.586 559.453 352.521C584.741 346.9 603.079 321.308 601.896 294.384C600.713 267.165 579.713 245.862 553.241 247.638ZM514.791 319.976C509.171 318.349 508.432 294.236 513.904 292.757C521.742 290.686 534.608 298.674 534.904 304.295C535.347 309.769 520.263 321.603 514.791 319.976ZM547.326 347.344C543.037 351.338 523.96 342.462 525.735 337.136C528.397 329.444 541.854 321.308 546.439 323.527C551.023 325.598 551.615 343.497 547.326 347.344ZM543.925 281.514C539.636 285.064 525.143 280.774 521.298 273.822C518.636 268.792 536.678 253.703 541.558 256.661C546.439 259.472 548.065 277.964 543.925 281.514ZM564.924 254.738C569.065 251.188 586.072 262.431 584.445 267.313C582.079 274.413 569.953 281.366 565.664 278.851C561.227 276.484 560.636 258.289 564.924 254.738ZM569.657 342.758C565.22 340.687 563.741 323.379 567.734 319.828C571.727 316.278 584.15 319.532 587.107 325.598C589.326 329.592 574.093 344.829 569.657 342.758ZM594.797 306.81C590.657 309.769 576.903 303.408 576.607 298.082C576.312 292.757 586.368 282.549 592.727 282.697C597.164 282.993 598.938 304 594.797 306.81Z" fill="#CCCCCC"/>
<path d="M573.65 298.526C574.241 308.733 566.995 318.349 557.53 319.976C547.622 321.751 538.897 314.503 538.157 303.704C537.418 292.905 545.256 282.993 555.164 281.81C564.924 280.626 573.058 288.171 573.65 298.526Z" fill="#AFAFAF"/>
<path d="M558.565 286.692C558.713 288.171 557.678 289.354 556.347 289.65C555.016 289.798 553.833 288.763 553.833 287.283C553.685 285.804 554.72 284.473 556.051 284.325C557.382 284.325 558.418 285.36 558.565 286.692Z" fill="#5B5B5B"/>
<path d="M560.192 314.503C560.34 315.834 559.305 317.166 557.974 317.461C556.643 317.757 555.46 316.722 555.46 315.242C555.312 313.763 556.347 312.58 557.678 312.284C559.009 312.136 560.044 313.171 560.192 314.503Z" fill="#5B5B5B"/>
<path d="M545.551 293.644C546.734 294.236 547.178 295.863 546.587 297.195C545.995 298.526 544.368 299.118 543.185 298.526C542.002 297.934 541.558 296.307 542.15 294.976C542.889 293.644 544.368 293.053 545.551 293.644Z" fill="#5B5B5B"/>
<path d="M544.368 308.29C545.551 307.402 547.03 307.55 547.77 308.586C548.509 309.769 548.361 311.396 547.178 312.284C545.995 313.171 544.516 313.023 543.777 311.988C542.889 310.952 543.185 309.325 544.368 308.29Z" fill="#5B5B5B"/>
<path d="M568.178 290.686C569.361 291.278 569.657 292.757 569.065 294.088C568.474 295.42 566.995 295.863 565.96 295.272C564.777 294.68 564.481 293.053 565.072 291.869C565.664 290.538 566.995 290.094 568.178 290.686Z" fill="#5B5B5B"/>
<path d="M566.847 304.887C567.882 304 569.361 304.148 570.101 305.183C570.84 306.219 570.544 307.846 569.509 308.733C568.474 309.621 566.995 309.473 566.255 308.438C565.516 307.402 565.812 305.775 566.847 304.887Z" fill="#5B5B5B"/>
<path d="M564.629 299.858C564.924 304.739 561.375 309.325 556.791 310.065C552.058 310.804 548.065 307.254 547.77 302.224C547.474 297.195 551.023 292.461 555.755 291.869C560.488 291.277 564.333 294.828 564.629 299.858Z" fill="#5B5B5B"/>
<path d="M737.36 365.095V363.912L737.064 364.06V362.876L736.768 363.024V361.841L736.472 361.989V360.805L736.177 360.953V359.474L735.881 359.622V358.438L735.585 358.586V357.403L735.289 357.551V356.367L734.993 356.515V355.036L734.698 355.184V354.001L734.402 354.148V352.965L734.106 353.113V351.929L733.81 352.077V350.894L733.515 351.042V349.858L733.219 350.006V348.823L732.923 348.971V347.787L732.627 347.935V346.752L732.332 346.9V345.716L732.036 345.864V344.681L731.74 344.829V343.645L731.444 343.793V342.61L731.148 342.758V341.574L730.853 341.722V340.539L729.67 340.983V340.539L728.486 340.983V340.539L727.303 340.983V340.539L712.811 344.977V232.253L712.515 232.401V231.217L712.219 231.365V230.182L711.923 230.33V229.146L711.627 229.294V228.111L711.332 228.259V227.075L711.036 227.223V226.04L710.74 226.188V225.004L710.444 225.152V223.969L710.149 224.116V222.933L709.853 223.081V221.898L709.557 222.045V220.862L709.261 221.01V219.826L708.966 219.974V218.791L708.67 218.939V217.755L708.374 217.903V216.72L708.078 216.868V215.684L707.782 215.832V214.649L707.487 214.797V213.613L707.191 213.761V212.578L706.895 212.726V211.542L706.599 211.69V210.507L706.304 210.655V209.471L706.008 209.619V208.436L704.825 208.88V208.436L703.642 208.88V208.436L702.459 208.88V208.436L698.466 209.619L584.889 405.777L586.072 405.481L585.185 406.96L586.368 406.664L585.481 408.143L586.664 407.848L585.776 409.327L586.96 409.031L586.072 410.51L587.255 410.215L586.368 411.694L587.551 411.398L586.664 412.877L587.847 412.581L586.96 414.061L588.143 413.765L587.255 415.244L588.438 414.948L587.551 416.428L588.734 416.132L587.847 417.611L589.03 417.315L588.143 418.795L589.326 418.499L588.438 419.978L589.622 419.682L588.734 421.161L589.917 420.866L589.03 422.345L590.213 422.049L589.326 423.528L590.509 423.233L589.622 424.712L590.805 424.416L589.917 425.895L591.1 425.599L590.213 427.079L591.396 426.783L590.509 428.262L591.692 427.966L590.805 429.446L591.988 429.15L591.1 430.629L592.283 430.333L591.396 431.813L592.579 431.517L591.692 432.996L593.171 432.552L592.875 432.996L594.354 432.552L594.058 432.996L595.537 432.552L595.241 432.996L682.494 406.072V424.564L682.79 424.416V425.599L683.085 425.452V426.635L683.381 426.487V427.67L683.677 427.523V428.706L683.973 428.558V429.742L684.269 429.594V430.777L684.564 430.629V431.813L684.86 431.665V432.848L685.156 432.7V433.884L685.452 433.736V434.919L685.747 434.771V435.955L686.043 435.807V436.99L686.339 436.842V438.026L686.635 437.878V439.061L686.931 438.913V440.097L687.226 439.949V441.132L687.522 440.984V442.168L687.818 442.02V443.203L688.114 443.055V444.239L688.409 444.091V445.274L688.705 445.126V446.31L689.001 446.162V447.345L689.297 447.197V448.381L690.48 447.937V448.381L691.663 447.937V448.381L692.846 447.937V448.381L712.958 442.168V394.83L737.655 387.285V367.758L737.36 365.095ZM682.79 311.544V353.113L653.36 362.137L682.79 311.544Z" fill="#4C4435"/>
<path d="M709.261 232.253L713.254 231.069V372.64L737.951 365.095V384.622L713.254 392.167V439.505L693.142 445.718V398.38L595.833 428.41L709.261 232.253ZM693.142 378.853V294.236L633.1 397.492L693.142 378.853Z" fill="#E4A87F"/>
<path d="M372.525 202.075H370.454V200.891H376.37V202.075H372.525ZM363.06 201.927L357.145 201.779V200.595L363.06 200.743V201.927ZM383.764 201.927V200.743C385.687 200.743 387.609 200.595 389.68 200.595V201.779C387.757 201.779 385.687 201.927 383.764 201.927ZM397.074 201.483V200.3L402.989 200.004V201.187L397.074 201.483ZM349.75 201.483C347.68 201.335 345.757 201.187 343.835 201.039V199.856C345.757 200.004 347.68 200.152 349.75 200.3V201.483ZM410.384 200.743L410.236 199.56L416.151 199.116L416.299 200.3L410.384 200.743ZM336.441 200.447C334.37 200.3 332.448 200.004 330.525 199.708L330.673 198.672C332.596 198.968 334.518 199.116 336.589 199.264L336.441 200.447ZM423.693 199.708L423.546 198.524L429.461 197.933L429.609 199.116L423.693 199.708ZM323.279 198.82C321.208 198.524 319.286 198.228 317.363 197.785L317.511 196.749C319.434 197.045 321.356 197.489 323.279 197.785V198.82ZM437.003 198.524L436.855 197.341L442.771 196.749L442.919 197.933L437.003 198.524ZM450.313 197.045L450.165 195.862L451.644 195.714C453.123 195.566 454.602 195.418 455.933 195.122L456.08 196.157L451.792 196.749L450.313 197.045ZM310.117 196.157C308.194 195.714 306.272 195.27 304.349 194.678L304.645 193.643C306.42 194.086 308.342 194.53 310.413 194.974L310.117 196.157ZM463.327 195.27L463.179 194.234C465.102 193.938 467.024 193.643 468.947 193.199L469.094 194.234C467.32 194.53 465.249 194.974 463.327 195.27ZM476.489 192.755L476.341 191.719C478.263 191.276 480.186 190.832 482.108 190.388L482.404 191.424C480.334 192.015 478.411 192.311 476.489 192.755ZM297.103 192.755C295.18 192.163 293.258 191.424 291.483 190.832L291.927 189.796C293.702 190.388 295.624 191.128 297.547 191.719L297.103 192.755ZM489.355 189.796L489.059 188.761C490.982 188.317 492.904 187.725 494.827 187.282L495.122 188.317L489.355 189.796ZM284.681 188.021C282.906 187.134 280.983 186.394 279.357 185.506L279.8 184.471C281.575 185.358 283.35 186.246 285.124 186.986L284.681 188.021ZM502.221 186.246L501.925 185.21L507.545 183.435L507.841 184.471C506.066 185.063 504.291 185.654 502.221 186.246ZM514.939 182.252L514.643 181.216C516.566 180.625 518.34 179.885 520.263 179.293L520.559 180.329L514.939 182.252ZM272.85 181.808C271.075 180.773 269.448 179.589 267.822 178.554L268.413 177.666C270.04 178.849 271.667 179.885 273.293 180.92L272.85 181.808ZM527.509 177.814L527.066 176.778C528.84 176.039 530.763 175.447 532.538 174.707L532.981 175.743C531.354 176.335 529.432 177.074 527.509 177.814ZM262.054 173.968C260.575 172.636 259.096 171.305 257.765 169.826L258.505 169.086C259.836 170.417 261.315 171.897 262.793 173.08L262.054 173.968ZM540.08 173.08L539.636 172.045C541.411 171.305 543.333 170.565 545.108 169.826L545.551 170.861C543.777 171.453 541.854 172.192 540.08 173.08ZM552.354 167.902L551.911 166.867L557.382 164.5L557.826 165.536C555.904 166.127 554.129 167.015 552.354 167.902ZM252.737 164.352C251.554 162.725 250.371 161.098 249.484 159.322L250.519 158.731C251.406 160.506 252.441 162.133 253.772 163.612L252.737 164.352ZM564.481 162.281L564.037 161.246C565.812 160.358 567.586 159.618 569.361 158.731L569.805 159.766C568.03 160.506 566.256 161.393 564.481 162.281ZM576.46 156.512L576.016 155.476L581.34 152.813L581.784 153.849L576.46 156.512ZM246.97 152.222C246.674 150.89 246.526 149.559 246.674 148.228C246.674 147.636 246.674 146.896 246.822 146.304L247.857 146.452C247.857 147.044 247.709 147.784 247.709 148.376C247.709 149.707 247.857 150.89 248.005 152.222H246.97ZM588.29 150.299L587.699 149.263C589.474 148.376 591.248 147.34 592.875 146.452L593.467 147.488L588.29 150.299ZM599.974 143.938L599.382 143.05L604.558 140.091L605.15 140.979C603.523 142.014 601.748 142.902 599.974 143.938ZM249.484 139.204L248.448 138.76C249.188 136.837 250.075 135.062 251.11 133.434L251.998 134.026C251.11 135.653 250.223 137.429 249.484 139.204ZM611.657 137.281L611.065 136.393C612.84 135.358 614.466 134.322 616.093 133.286L616.685 134.174L611.657 137.281ZM623.044 130.328L622.452 129.44C624.227 128.257 626.001 127.221 627.48 126.334L628.072 127.221C626.445 128.109 624.818 129.144 623.044 130.328ZM256.434 128.109L255.547 127.369C256.73 125.89 258.209 124.411 259.54 122.931L260.279 123.671C258.948 125.15 257.617 126.63 256.434 128.109ZM634.283 123.079L633.692 122.192C636.945 120.121 638.572 118.789 638.572 118.789L639.163 119.677C639.163 119.677 637.389 121.008 634.283 123.079ZM265.899 118.937L265.16 118.05C266.638 116.866 268.265 115.535 269.892 114.351L270.483 115.239C268.857 116.422 267.23 117.606 265.899 118.937ZM276.547 111.097L275.955 110.209C277.582 109.174 279.209 108.138 280.983 107.103L281.575 108.138C279.8 108.878 278.174 109.913 276.547 111.097ZM287.934 104.292L287.343 103.256C289.117 102.369 290.892 101.481 292.666 100.594L293.11 101.629C291.335 102.369 289.561 103.404 287.934 104.292ZM299.913 98.3746L299.469 97.3391C301.244 96.4515 303.166 95.7118 304.941 94.9722L305.385 96.0077C303.462 96.8953 301.687 97.6349 299.913 98.3746Z" fill="#263238"/>
<path d="M673.325 66.5693L664.748 92.3094L683.825 76.6286L757.472 47.634L673.325 66.5693Z" fill="#FFC727"/>
<path opacity="0.1" d="M673.325 66.5693L664.748 92.3094L683.825 76.6286L757.472 47.634L673.325 66.5693Z" fill="black"/>
<path d="M686.487 82.398L664.748 92.3094L683.825 76.6287L686.487 82.398Z" fill="#263238"/>
<path d="M683.825 76.6286L757.472 47.634L698.022 108.878L683.825 76.6286Z" fill="#FFC727"/>
<path d="M673.325 66.5693L641.825 47.4861L757.472 47.634L673.325 66.5693Z" fill="#FFC727"/>
<path d="M663.86 366.131C663.121 365.391 662.381 364.8 661.79 364.06L662.529 363.32C663.269 364.06 664.008 364.652 664.748 365.391L663.86 366.131Z" fill="#263238"/>
<path d="M571.579 433.292V432.108C573.502 432.108 575.572 431.96 577.495 431.665L577.643 432.848C575.72 432.996 573.65 433.144 571.579 433.292ZM564.185 433.144C562.263 432.996 560.192 432.848 558.27 432.7L558.418 431.665C560.34 431.813 562.41 432.108 564.333 432.108L564.185 433.144ZM585.037 431.517L584.741 430.481C586.664 430.037 588.586 429.594 590.361 428.854L590.657 429.889C588.882 430.629 586.96 431.073 585.037 431.517ZM550.875 431.813C548.953 431.517 547.03 431.073 545.108 430.777L545.404 429.742C547.326 430.185 549.249 430.629 551.171 430.777L550.875 431.813ZM537.714 429.002C535.791 428.41 533.868 427.818 532.094 427.375L532.39 426.339C534.312 426.931 536.235 427.523 538.009 427.966L537.714 429.002ZM597.607 427.079L597.164 426.043C598.938 425.156 600.713 424.268 602.34 423.085L602.931 423.972C601.157 425.156 599.382 426.191 597.607 427.079ZM524.995 424.712C523.221 423.972 521.298 423.233 519.523 422.641L519.967 421.605C521.742 422.345 523.664 423.085 525.439 423.676L524.995 424.712ZM608.699 419.386L607.959 418.499C609.438 417.167 610.769 415.836 611.952 414.209L612.84 414.948C611.509 416.576 610.178 418.055 608.699 419.386ZM512.573 419.534C510.798 418.647 509.024 417.759 507.249 417.019L507.693 415.984C509.467 416.871 511.242 417.759 513.017 418.499L512.573 419.534ZM500.594 413.617C498.819 412.581 497.193 411.694 495.418 410.806L496.01 409.919C497.636 410.954 499.411 411.99 501.186 412.729L500.594 413.617ZM616.833 408.587L615.797 407.996C616.685 406.22 617.572 404.445 618.016 402.67L619.051 403.114C618.607 405.037 617.868 406.96 616.833 408.587ZM489.207 406.96C487.58 405.924 485.953 404.741 484.327 403.853L484.918 402.966C486.545 404.149 488.172 405.185 489.798 406.072L489.207 406.96ZM477.968 399.415C476.341 398.232 474.862 397.049 473.235 396.013L473.975 395.125C475.453 396.309 477.08 397.492 478.707 398.528L477.968 399.415ZM621.121 395.865L620.086 395.717C620.382 393.794 620.678 391.871 620.53 389.948H621.713C621.417 391.871 621.269 393.942 621.121 395.865ZM467.32 391.575C465.841 390.244 464.214 389.06 462.735 387.877L463.475 386.989C464.954 388.321 466.432 389.504 468.059 390.688L467.32 391.575ZM620.086 382.551C619.938 380.628 619.642 378.705 619.051 376.782L620.086 376.634C620.53 378.705 620.825 380.628 621.121 382.551H620.086ZM457.116 382.995C455.637 381.664 454.158 380.332 452.679 379.149L453.418 378.409C454.897 379.741 456.376 381.072 457.707 382.403L457.116 382.995ZM447.207 373.971C445.728 372.64 444.397 371.161 442.919 369.829L443.658 369.09C445.137 370.569 446.468 371.9 447.947 373.232L447.207 373.971ZM617.276 369.533C616.685 367.758 616.093 365.835 615.206 363.912L616.241 363.468C616.98 365.391 617.572 367.314 618.311 369.09L617.276 369.533ZM437.447 364.652C436.116 363.172 434.637 361.841 433.306 360.362L434.045 359.622L438.186 363.912L437.447 364.652ZM612.1 357.403C611.213 355.628 610.326 353.853 609.29 352.225L610.326 351.634C611.361 353.409 612.248 355.184 613.283 356.959L612.1 357.403ZM428.13 355.184L423.989 350.894L424.876 350.154L429.017 354.444L428.13 355.184ZM605.445 346.012C604.41 344.385 603.227 342.758 602.044 341.13L602.931 340.539C604.114 342.166 605.15 343.793 606.333 345.568L605.445 346.012ZM418.665 345.716L414.524 341.426L415.264 340.687L419.405 344.977L418.665 345.716ZM597.607 335.213C596.424 333.734 595.093 332.107 593.762 330.627L594.65 329.888C595.981 331.367 597.164 332.994 598.495 334.474L597.607 335.213ZM409.201 336.249C407.87 334.769 406.391 333.438 405.06 331.959L405.799 331.219L409.94 335.509L409.201 336.249ZM588.734 325.302C587.403 323.822 586.072 322.491 584.741 321.012L585.481 320.272C586.96 321.751 588.291 323.231 589.622 324.562L588.734 325.302ZM399.736 326.929L395.595 322.787L396.334 322.047L400.475 326.189L399.736 326.929ZM390.123 317.609L385.835 313.467L386.574 312.728L390.863 316.87L390.123 317.609ZM380.363 308.733C378.884 307.402 377.405 306.071 375.926 304.887L376.666 304C378.144 305.331 379.623 306.662 381.102 307.846L380.363 308.733ZM370.159 300.005C368.68 298.674 367.201 297.491 365.722 296.307L366.462 295.42C367.94 296.751 369.419 298.082 370.898 299.118L370.159 300.005ZM359.955 291.573C358.476 290.39 356.849 289.058 355.37 288.023L356.109 287.135C357.736 288.319 359.215 289.65 360.694 290.686L359.955 291.573ZM349.307 283.437C347.828 282.254 346.201 281.07 344.574 280.035L345.166 279.147C346.793 280.331 348.419 281.514 349.898 282.549L349.307 283.437ZM338.363 275.745L333.483 272.49L334.074 271.603C335.701 272.786 337.328 273.822 338.955 274.857L338.363 275.745ZM327.42 268.496C325.793 267.46 324.166 266.277 322.391 265.389L322.983 264.502C324.61 265.537 326.384 266.721 328.011 267.608L327.42 268.496ZM316.032 261.543C314.406 260.508 312.631 259.472 311.004 258.585L311.596 257.697C313.37 258.732 314.997 259.768 316.624 260.656L316.032 261.543ZM304.349 254.886C302.723 253.851 300.948 252.963 299.173 252.076L299.765 251.04C301.54 252.076 303.314 252.963 304.941 253.851L304.349 254.886ZM292.518 248.673C290.744 247.786 288.969 246.898 287.342 246.01L287.786 244.975C289.561 245.862 291.335 246.75 293.11 247.638L292.518 248.673ZM280.688 242.756C278.913 241.868 277.138 240.981 275.364 240.241L275.807 239.205C277.582 240.093 279.357 240.981 281.131 241.72L280.688 242.756ZM268.561 237.282L263.237 235.063L263.681 234.028C265.455 234.768 267.378 235.655 269.153 236.247L268.561 237.282ZM256.139 232.105C254.364 231.365 252.441 230.625 250.667 229.886L251.11 228.85L256.582 231.069L256.139 232.105Z" fill="#263238"/>
<path d="M122.006 198.82H119.048V197.637H122.006V198.82Z" fill="#263238"/>
<path d="M119.196 180.181L137.386 202.075L112.689 194.086L29.2814 193.938L119.196 180.181Z" fill="#FFC727"/>
<path opacity="0.1" d="M119.196 180.181L137.386 202.075L112.689 194.086L29.2814 193.938L119.196 180.181Z" fill="black"/>
<path d="M112.245 200.743L137.386 202.075L112.689 194.086L112.245 200.743Z" fill="#263238"/>
<path d="M112.689 194.086L29.2814 193.938L111.062 231.069L112.689 194.086Z" fill="#FFC727"/>
<path d="M119.196 180.181L142.562 149.263L29.2814 193.938L119.196 180.181Z" fill="#FFC727"/>
<path d="M200.238 285.952C222.716 296.603 236.765 340.095 225.378 375.451C213.104 413.765 174.062 421.014 151.583 412.877C127.773 404.149 120.527 377.817 131.323 361.989C141.823 346.752 159.125 342.166 163.71 328.26C165.928 321.603 165.632 309.325 168.442 299.266C171.844 288.171 186.78 279.591 200.238 285.952Z" fill="#263238"/>
<path d="M208.963 292.017C217.836 301.485 224.639 312.58 228.928 324.71C231.146 330.775 232.477 337.136 233.216 343.645C233.512 346.9 233.512 350.154 233.364 353.409C233.216 356.663 232.773 359.918 232.329 363.024C230.111 375.746 224.935 388.173 216.062 397.788C211.625 402.522 206.301 406.368 200.533 409.327C194.766 412.138 188.555 413.913 182.048 414.652C194.766 412.729 206.597 406.516 215.322 397.049C223.899 387.581 229.075 375.451 230.998 362.876C231.59 359.77 231.885 356.515 232.033 353.409C232.181 350.302 232.181 347.048 231.885 343.793C231.294 337.432 229.963 331.219 227.892 325.154C225.822 319.089 223.16 313.319 219.907 307.698C216.801 302.224 213.104 296.899 208.963 292.017Z" fill="#263238"/>
<path d="M166.224 311.988C166.076 315.538 165.632 319.089 164.745 322.639C163.858 326.189 162.527 329.444 160.604 332.55C158.682 335.657 156.168 338.32 153.21 340.391C150.252 342.462 147.442 344.533 144.633 346.604C139.013 350.746 134.133 356.072 130.583 362.137C127.034 368.35 125.851 375.451 126.886 382.551C126.147 379.001 125.999 375.451 126.443 371.9C126.738 370.125 127.034 368.35 127.626 366.575C128.217 364.799 128.957 363.172 129.696 361.545C133.097 355.036 138.273 349.858 143.893 345.42C146.703 343.201 149.661 341.13 152.618 339.207C155.428 337.136 157.942 334.621 159.865 331.811C163.71 326.189 165.337 319.089 166.224 311.988Z" fill="#263238"/>
<path d="M519.523 498.53C516.27 499.861 420.44 504.151 416.595 501.932C416.151 501.636 416.299 497.494 414.82 486.547C414.82 485.956 412.602 484.032 409.201 481.074C396.334 470.275 366.314 447.641 366.314 447.641L414.081 406.072L460.369 451.635L472.348 463.47C472.348 463.47 511.538 482.109 515.383 484.92C519.228 487.731 522.925 497.198 519.523 498.53Z" fill="#F7A9A0"/>
<path d="M519.524 498.53C516.27 499.861 420.292 504.003 416.595 501.932C416.151 501.636 416.299 497.494 414.82 486.547C428.574 488.618 501.629 492.465 504.143 483.737C505.179 480.334 494.235 474.121 492.313 473.085C502.665 478.115 513.608 483.441 515.531 484.92C519.524 487.731 522.925 497.198 519.524 498.53Z" fill="#263238"/>
<path d="M443.658 430.333L436.264 438.765L399.44 480.778C399.44 480.778 348.715 443.943 333.927 431.813C333.483 431.369 274.92 472.79 232.181 480.778C199.35 486.843 177.02 474.565 164.153 443.943L218.28 419.978C263.681 397.64 314.849 361.989 345.905 365.687C379.623 369.829 443.658 430.333 443.658 430.333Z" fill="#37474F"/>
<path d="M432.123 427.375C424.581 435.511 426.651 433.144 419.109 441.428C415.412 445.422 397.074 465.689 394.264 470.127C394.264 470.275 394.264 470.275 394.412 470.275C398.405 467.02 416.299 446.31 419.996 442.168C427.391 433.736 425.172 436.103 432.419 427.671C432.419 427.375 432.271 427.227 432.123 427.375Z" fill="#263238"/>
<path d="M430.348 445.422L399.44 480.926C399.44 480.926 348.715 443.943 333.927 431.813C333.483 431.369 274.92 472.79 232.181 480.778C199.35 486.843 177.02 474.565 164.153 443.943L218.28 419.978C224.343 417.019 230.406 413.765 236.618 410.51C284.237 419.238 388.644 438.026 430.348 445.422Z" fill="#263238"/>
<path d="M511.686 516.282C508.432 517.613 412.602 521.903 408.757 519.684C408.313 519.388 408.461 515.246 406.982 504.299C406.982 503.707 404.764 501.784 401.363 498.826C388.497 488.027 358.476 465.393 358.476 465.393L406.391 423.824L452.679 469.387L464.806 481.222C464.806 481.222 503.996 499.861 507.841 502.672C511.686 505.482 514.939 515.098 511.686 516.282Z" fill="#F7A9A0"/>
<path d="M511.686 516.282C508.432 517.613 412.602 521.755 408.757 519.684C408.313 519.388 408.461 515.246 407.13 504.299C420.884 506.37 493.939 510.216 496.453 501.488C497.489 498.086 486.545 491.873 484.622 490.837C494.974 495.867 505.77 501.192 507.841 502.672C511.538 505.483 514.939 515.098 511.686 516.282Z" fill="#263238"/>
<path d="M482.108 489.95C478.263 487.879 474.27 485.808 470.425 483.885C468.503 482.997 466.728 481.961 465.249 480.63C463.623 479.151 462.144 477.523 460.517 476.044C454.01 469.979 447.651 463.766 441.144 457.701C437.595 454.446 434.193 451.044 430.644 447.789C430.496 447.641 430.348 447.789 430.496 447.937C430.644 448.233 436.56 454.594 439.369 457.405C442.475 460.511 445.728 463.766 448.982 466.872L458.447 476.192L463.327 480.778C464.806 482.257 466.432 483.441 468.207 484.328C472.792 486.547 477.376 488.47 481.961 490.393C482.108 490.246 482.256 489.95 482.108 489.95Z" fill="#263238"/>
<path d="M155.428 434.475C155.428 434.475 148.33 472.938 168.59 489.358C183.083 501.192 202.16 502.376 218.576 500.009C264.124 493.5 302.723 438.617 317.807 435.659C325.497 434.179 386.574 494.536 386.574 494.536L434.045 448.529C421.919 438.026 350.046 365.243 313.666 365.243C288.821 365.243 225.822 416.871 224.195 416.28C221.681 415.244 210.738 410.067 210.738 410.067L155.428 434.475Z" fill="#37474F"/>
<path d="M424.433 443.795C418.517 448.825 412.898 454.298 407.278 459.624C401.658 464.949 396.187 470.275 390.715 475.748C387.609 478.855 384.504 481.961 381.546 485.068V485.216C381.546 485.216 381.546 485.216 381.694 485.216C387.609 480.186 393.229 474.861 398.849 469.535C404.468 464.21 409.94 458.884 415.412 453.558C418.517 450.452 421.623 447.493 424.581 444.239C424.581 443.943 424.433 443.795 424.433 443.795Z" fill="#263238"/>
<path d="M193.139 428.558C192.991 428.41 192.695 428.558 192.843 428.706C194.174 434.475 193.435 440.541 190.773 445.866C187.667 451.783 182.048 455.925 177.167 460.068C176.724 460.511 177.315 461.251 177.759 460.955C181.012 459.032 183.97 456.813 186.78 454.298C189.294 452.079 191.364 449.269 192.843 446.31C195.357 440.689 195.505 434.18 193.139 428.558Z" fill="#263238"/>
<path d="M225.083 420.422C223.752 419.386 222.273 418.499 220.794 417.463C217.392 415.096 213.991 412.729 210.442 410.51C210.146 410.362 209.702 410.806 209.998 411.102C212.512 413.025 215.026 414.8 217.54 416.576L221.385 419.238C222.716 419.978 223.899 420.866 225.083 421.901C225.822 422.641 225.674 423.824 224.935 424.416C224.787 424.564 224.491 424.712 224.195 424.86C223.012 425.156 221.681 425.156 220.646 424.564C218.132 423.38 215.766 421.753 213.547 420.126C212.069 419.238 210.738 418.351 209.259 417.463C207.78 416.576 206.153 415.688 204.674 414.652C204.526 414.652 204.526 414.8 204.526 414.8C205.857 415.984 207.188 417.167 208.667 418.203C210.146 419.238 211.477 420.422 212.956 421.457C214.435 422.493 215.618 423.528 217.097 424.416C218.28 425.304 219.611 425.895 220.942 426.339C223.16 426.931 226.561 426.339 227.005 423.528C226.857 422.197 226.266 421.014 225.083 420.422Z" fill="#263238"/>
<path d="M430.792 444.978C427.834 441.872 424.581 438.913 421.475 436.103C418.369 433.292 415.264 430.185 412.01 427.375C405.651 421.605 399.292 415.836 392.785 410.362C386.278 404.889 379.475 399.563 372.525 394.386C365.574 389.208 358.624 384.622 351.377 380.184C347.68 377.965 343.983 375.894 340.138 373.971C336.441 372.048 332.596 370.273 328.751 368.646C327.715 368.202 326.68 367.906 325.645 367.462C325.497 367.462 325.349 367.61 325.497 367.758C327.42 368.646 329.342 369.681 331.265 370.569C333.187 371.456 334.962 372.492 336.884 373.527C340.581 375.451 344.279 377.522 347.976 379.741C355.222 384.031 362.469 388.764 369.271 393.646C376.222 398.676 382.877 403.853 389.532 409.327C396.187 414.8 402.694 420.422 409.053 426.043C415.412 431.665 421.771 437.582 428.13 443.203C428.869 443.943 429.757 444.683 430.644 445.274C430.792 445.422 430.94 445.422 431.088 445.274C431.236 445.126 430.94 445.126 430.792 444.978Z" fill="#263238"/>
<path d="M384.06 478.855C369.419 464.949 329.786 429.446 320.913 423.528C319.138 422.345 316.772 421.901 314.701 422.493C312.483 423.232 310.413 424.564 308.786 426.191L302.279 431.369L288.821 442.02C280.54 448.677 272.11 455.334 263.681 461.843C256.286 467.76 248.301 473.233 240.167 477.967C224.195 486.843 204.231 492.465 186.632 484.772C178.646 481.222 172.287 474.861 168.738 467.02C164.893 459.18 163.414 450.304 162.379 441.724C162.083 439.653 161.935 437.582 161.787 435.511C161.787 435.363 161.639 435.363 161.639 435.511C162.379 451.783 165.041 470.719 178.794 481.37C193.435 492.76 213.991 490.837 230.258 484.18C248.448 476.784 263.533 463.766 278.765 451.635L305.385 430.481C307.603 428.706 309.673 426.931 311.892 425.304C314.11 423.676 316.624 422.493 319.286 423.972C327.715 428.854 382.137 477.523 384.06 479.299C384.208 479.299 384.356 479.299 384.356 479.151C384.356 479.003 384.208 478.855 384.06 478.855Z" fill="#263238"/>
<path d="M199.942 349.71C209.702 355.628 251.554 380.036 268.265 373.084C278.174 368.942 296.216 340.095 303.166 328.556C307.011 322.195 268.857 310.213 265.899 316.426C260.723 326.929 254.216 341.13 252.589 342.462C250.963 343.793 225.083 338.764 206.005 337.432C188.85 336.397 193.139 345.568 199.942 349.71Z" fill="#F7A9A0"/>
<path d="M308.194 315.242C307.011 323.083 298.434 338.32 294.885 341.278C291.335 344.237 265.012 330.183 264.272 325.746C263.533 321.16 269.448 294.828 275.364 289.354C281.279 283.881 309.378 307.106 308.194 315.242Z" fill="#F7A9A0"/>
<path d="M264.42 321.012C262.941 314.799 260.575 308.733 257.322 303.112C253.181 296.603 246.378 287.431 249.779 285.064C256.73 280.331 273.737 303.112 273.737 303.112C273.737 303.112 279.652 314.355 273.145 319.828C270.631 321.899 267.23 322.195 264.42 321.012Z" fill="#F7A9A0"/>
<path d="M243.273 338.616L221.385 363.468C221.385 363.468 206.597 355.776 199.055 350.302C188.998 343.054 189.294 337.728 204.379 336.249C214.287 335.213 243.273 338.616 243.273 338.616Z" fill="#FFC727"/>
<path opacity="0.2" d="M226.118 357.847C225.083 357.847 224.195 358.734 224.195 359.77C224.195 359.918 224.195 359.918 224.195 360.066L224.787 359.326C224.935 359.03 225.083 358.734 225.526 358.586L226.118 357.847ZM236.618 346.16C236.47 345.272 235.73 344.681 234.843 344.681C233.808 344.681 232.921 345.568 232.921 346.604C232.921 347.639 233.66 348.379 234.695 348.527L235.287 347.935C235.139 347.935 234.991 347.935 234.991 347.935C234.251 347.935 233.66 347.344 233.66 346.604C233.66 345.864 234.251 345.272 234.991 345.272C235.73 345.272 236.322 345.864 236.322 346.604V346.752L236.618 346.16ZM217.54 344.681C216.505 344.681 215.618 345.568 215.618 346.604C215.618 347.639 216.505 348.527 217.54 348.527C218.576 348.527 219.463 347.639 219.463 346.604C219.463 345.42 218.576 344.681 217.54 344.681C217.54 344.533 217.54 344.533 217.54 344.681ZM217.54 347.787C216.801 347.787 216.209 347.196 216.209 346.456C216.209 345.716 216.801 345.125 217.54 345.125C218.28 345.125 218.871 345.716 218.871 346.456C218.723 347.196 218.132 347.787 217.54 347.787ZM200.238 344.681C199.202 344.681 198.315 345.568 198.315 346.604C198.315 347.639 199.202 348.527 200.238 348.527C201.273 348.527 202.16 347.639 202.16 346.604C202.16 345.42 201.273 344.681 200.238 344.681ZM200.238 347.787C199.498 347.787 198.907 347.196 198.907 346.456C198.907 345.716 199.498 345.125 200.238 345.125C200.977 345.125 201.569 345.716 201.569 346.456C201.569 347.196 200.977 347.787 200.238 347.787Z" fill="black"/>
<path d="M238.688 338.911C235.287 342.314 231.885 345.716 228.632 349.415C227.005 351.19 225.378 352.965 223.899 354.888C222.421 356.663 220.942 358.734 219.315 360.51C219.315 360.657 219.463 360.805 219.463 360.657C220.942 358.734 222.716 357.107 224.343 355.184C225.97 353.409 227.597 351.486 229.075 349.71C232.329 346.16 235.435 342.462 238.836 339.059L238.688 338.911Z" fill="#263238"/>
<path opacity="0.1" d="M231.589 351.634L221.237 363.32C213.547 359.326 206.153 354.888 198.907 350.154C191.66 344.977 189.886 340.835 194.914 338.32L231.589 351.634Z" fill="black"/>
<path d="M229.815 401.487L232.773 412.581C232.773 412.581 152.323 474.121 148.773 472.05C148.773 472.05 160.752 364.652 181.308 343.349C191.66 332.698 203.343 333.734 210.738 341.574C212.512 343.497 232.773 368.794 234.843 380.332C236.618 390.54 229.815 401.487 229.815 401.487Z" fill="#FFC727"/>
<path d="M228.336 365.835C227.153 363.616 225.822 361.397 224.343 359.178C224.047 358.438 223.604 357.551 223.16 356.811C222.568 355.628 221.977 354.592 221.533 353.409C221.533 353.261 221.385 353.409 221.385 353.409C221.977 354.592 222.421 355.776 222.864 356.959V357.107C222.421 356.367 221.829 355.628 221.237 354.888C220.35 353.705 219.611 352.521 218.576 351.486H218.428C219.167 352.669 219.906 353.853 220.646 355.036C221.385 356.219 222.273 357.403 223.012 358.734C224.639 361.101 226.118 363.468 227.744 365.835C228.188 365.983 228.188 365.983 228.336 365.835C228.336 365.983 228.336 365.835 228.336 365.835Z" fill="#263238"/>
<path opacity="0.2" d="M183.083 344.681C182.048 344.681 181.16 345.568 181.16 346.604C181.16 347.639 182.048 348.527 183.083 348.527C184.118 348.527 185.005 347.639 185.005 346.604C185.005 345.42 184.118 344.681 183.083 344.681C183.083 344.533 183.083 344.533 183.083 344.681ZM183.083 347.787C182.343 347.639 181.9 347.048 181.9 346.308C181.9 345.716 182.491 345.273 183.083 345.125C183.822 345.273 184.266 345.864 184.266 346.604C184.118 347.344 183.674 347.787 183.083 347.787ZM200.238 344.681C199.202 344.681 198.315 345.568 198.315 346.604C198.315 347.639 199.202 348.527 200.238 348.527C201.273 348.527 202.16 347.639 202.16 346.604C202.16 345.42 201.421 344.533 200.238 344.681C200.238 344.533 200.238 344.533 200.238 344.681ZM200.238 347.787C199.498 347.787 198.907 347.196 198.907 346.456C198.907 345.716 199.498 345.125 200.238 345.125C200.977 345.125 201.569 345.716 201.569 346.456C201.569 347.196 200.977 347.787 200.238 347.787ZM167.703 372.048C167.555 372.788 167.259 373.38 167.111 374.119C167.555 373.823 167.851 373.232 167.851 372.64C167.703 372.492 167.703 372.196 167.703 372.048ZM183.083 370.717C182.048 370.717 181.16 371.604 181.16 372.64C181.16 373.675 182.048 374.563 183.083 374.563C184.118 374.563 185.005 373.675 185.005 372.64C185.005 371.604 184.118 370.717 183.083 370.717ZM183.083 373.971C182.343 373.971 181.752 373.38 181.752 372.64C181.752 371.9 182.343 371.456 183.083 371.456C183.822 371.456 184.414 372.048 184.414 372.64C184.414 373.38 183.822 373.971 183.083 373.971ZM200.238 370.717C199.202 370.717 198.315 371.604 198.315 372.64C198.315 373.675 199.202 374.563 200.238 374.563C201.273 374.563 202.16 373.675 202.16 372.64C202.16 371.604 201.421 370.717 200.238 370.717ZM200.238 373.971C199.498 373.971 198.907 373.38 198.907 372.64C199.055 371.9 199.646 371.456 200.386 371.456C200.977 371.456 201.421 372.048 201.569 372.64C201.569 373.38 200.977 373.971 200.238 373.971ZM217.54 370.717C216.505 370.717 215.618 371.604 215.618 372.64C215.618 373.675 216.505 374.563 217.54 374.563C218.575 374.563 219.463 373.675 219.463 372.64C219.463 371.604 218.575 370.717 217.54 370.717ZM217.54 373.971C216.801 373.971 216.209 373.38 216.209 372.64C216.209 371.9 216.801 371.308 217.54 371.308C218.28 371.308 218.871 371.9 218.871 372.64C218.871 373.38 218.28 373.971 217.54 373.971ZM174.505 357.847C173.47 357.847 172.583 358.734 172.583 359.77C172.583 360.805 173.47 361.693 174.505 361.693C175.541 361.693 176.428 360.805 176.428 359.77C176.428 358.734 175.541 357.847 174.505 357.847ZM174.505 361.101C173.766 361.101 173.174 360.509 173.174 359.77C173.174 359.03 173.766 358.438 174.505 358.438C175.245 358.438 175.836 359.03 175.836 359.77C175.836 360.509 175.245 361.101 174.505 361.101ZM191.66 357.847C190.625 357.847 189.738 358.734 189.738 359.77C189.738 360.805 190.625 361.693 191.66 361.693C192.695 361.693 193.583 360.805 193.583 359.77C193.583 358.734 192.695 357.847 191.66 357.847ZM191.66 361.101C190.921 361.101 190.329 360.509 190.329 359.77C190.329 359.03 190.921 358.438 191.66 358.438C192.4 358.438 192.991 359.03 192.991 359.77C192.991 360.509 192.4 361.101 191.66 361.101ZM208.963 357.847C207.928 357.847 207.04 358.734 207.04 359.77C207.04 360.805 207.928 361.693 208.963 361.693C209.998 361.693 210.885 360.805 210.885 359.77C210.885 358.734 209.998 357.847 208.963 357.847ZM208.963 361.101C208.223 361.101 207.632 360.509 207.632 359.77C207.632 359.03 208.223 358.438 208.963 358.438C209.702 358.438 210.294 359.03 210.294 359.77C210.294 360.509 209.702 361.101 208.963 361.101ZM224.195 359.622C224.195 359.622 224.195 359.77 224.195 359.622C224.195 360.509 224.639 361.249 225.378 361.545C225.082 360.953 224.639 360.214 224.195 359.622ZM165.928 396.901C164.893 396.901 164.006 397.788 164.006 398.824C164.006 399.859 164.893 400.747 165.928 400.747C166.963 400.747 167.851 399.859 167.851 398.824C167.851 397.788 166.963 396.901 165.928 396.901C165.928 396.901 165.78 396.901 165.928 396.901ZM165.928 400.155C165.189 400.155 164.597 399.563 164.597 398.824C164.597 398.084 165.189 397.492 165.928 397.492C166.667 397.492 167.259 398.084 167.259 398.824C167.259 399.563 166.667 400.155 165.928 400.155C165.928 400.155 165.78 400.155 165.928 400.155ZM183.083 396.901C182.048 396.901 181.16 397.788 181.16 398.824C181.16 399.859 182.048 400.747 183.083 400.747C184.118 400.747 185.005 399.859 185.005 398.824C185.005 397.788 184.118 396.901 183.083 396.901ZM183.083 400.155C182.343 400.007 181.9 399.415 181.9 398.676C181.9 398.084 182.491 397.64 183.083 397.492C183.822 397.64 184.266 398.232 184.266 398.972C184.118 399.563 183.674 400.155 183.083 400.155ZM200.238 396.901C199.202 396.901 198.315 397.788 198.315 398.824C198.315 399.859 199.202 400.747 200.238 400.747C201.273 400.747 202.16 399.859 202.16 398.824C202.16 397.788 201.273 396.901 200.238 396.901ZM200.238 400.155C199.498 400.155 198.907 399.563 198.907 398.824C198.907 398.084 199.498 397.492 200.238 397.492C200.977 397.492 201.569 398.084 201.569 398.824C201.569 399.563 200.977 400.155 200.238 400.155ZM217.54 396.901C216.505 396.901 215.618 397.788 215.618 398.824C215.618 399.859 216.505 400.747 217.54 400.747C218.575 400.747 219.463 399.859 219.463 398.824C219.463 397.788 218.575 396.901 217.54 396.901ZM217.54 400.155C216.801 400.155 216.209 399.563 216.209 398.824C216.209 398.084 216.801 397.492 217.54 397.492C218.28 397.492 218.871 398.084 218.871 398.824C218.871 399.563 218.28 400.155 217.54 400.155ZM174.505 384.031C173.47 384.031 172.583 384.918 172.583 385.954C172.583 386.989 173.47 387.877 174.505 387.877C175.541 387.877 176.428 386.989 176.428 385.954C176.428 384.77 175.541 384.031 174.505 384.031ZM174.505 387.137C173.766 387.137 173.174 386.545 173.174 385.806C173.174 385.066 173.766 384.474 174.505 384.474C175.245 384.474 175.836 385.066 175.836 385.806C175.836 386.545 175.245 387.137 174.505 387.137C174.505 387.285 174.505 387.285 174.505 387.137ZM191.66 384.031C190.625 384.031 189.738 384.918 189.738 385.954C189.738 386.989 190.625 387.877 191.66 387.877C192.695 387.877 193.583 386.989 193.583 385.954C193.583 384.77 192.695 384.031 191.66 384.031ZM191.66 387.137C190.921 387.285 190.329 386.693 190.181 385.954C190.033 385.214 190.625 384.622 191.364 384.474C191.512 384.474 191.512 384.474 191.66 384.474C192.4 384.622 192.843 385.214 192.843 385.954C192.843 386.693 192.252 387.137 191.66 387.137ZM208.963 384.031C207.928 384.031 207.04 384.918 207.04 385.954C207.04 386.989 207.928 387.877 208.963 387.877C209.998 387.877 210.885 386.989 210.885 385.954C210.885 384.77 209.998 384.031 208.963 384.031ZM208.963 387.137C208.223 387.137 207.632 386.545 207.632 385.806C207.632 385.066 208.223 384.474 208.963 384.474C209.702 384.474 210.294 385.066 210.294 385.806C210.294 386.545 209.702 387.137 208.963 387.137C208.963 387.285 208.963 387.285 208.963 387.137ZM226.118 384.031C225.082 384.031 224.195 384.918 224.195 385.954C224.195 386.989 225.082 387.877 226.118 387.877C227.153 387.877 228.04 386.989 228.04 385.954C228.04 384.77 227.153 384.031 226.118 384.031ZM226.118 387.137C225.378 387.285 224.787 386.693 224.639 385.954C224.491 385.214 225.082 384.622 225.822 384.474C225.97 384.474 225.97 384.474 226.118 384.474C226.857 384.622 227.301 385.214 227.301 385.954C227.301 386.693 226.709 387.137 226.118 387.137ZM165.78 423.085C164.745 423.085 163.858 423.972 163.858 425.008C163.858 426.043 164.745 426.931 165.78 426.931C166.815 426.931 167.703 426.043 167.703 425.008C167.703 423.972 166.963 423.085 165.78 423.085ZM165.78 426.339C165.041 426.339 164.449 425.747 164.449 425.008C164.597 424.268 165.189 423.824 165.928 423.824C166.52 423.824 166.963 424.416 167.111 425.008C167.111 425.747 166.52 426.339 165.78 426.339ZM183.083 423.085C182.048 423.085 181.16 423.972 181.16 425.008C181.16 426.043 182.048 426.931 183.083 426.931C184.118 426.931 185.005 426.043 185.005 425.008C185.005 423.972 184.118 423.085 183.083 423.085ZM183.083 426.339C182.343 426.339 181.752 425.747 181.752 425.008C181.752 424.268 182.343 423.676 183.083 423.676C183.822 423.676 184.414 424.268 184.414 424.86C184.414 425.747 183.822 426.339 183.083 426.339ZM200.238 423.085C199.202 423.085 198.315 423.972 198.315 425.008C198.315 426.043 199.202 426.931 200.238 426.931C201.273 426.931 202.16 426.043 202.16 425.008C202.16 423.972 201.421 423.085 200.238 423.085ZM200.238 426.339C199.498 426.339 198.907 425.747 198.907 425.008C199.055 424.268 199.646 423.824 200.386 423.824C200.977 423.824 201.421 424.416 201.569 425.008C201.569 425.747 200.977 426.339 200.238 426.339ZM217.54 423.085C216.505 423.085 215.618 423.972 215.618 425.008C215.618 425.156 215.618 425.451 215.766 425.599C215.914 425.451 216.061 425.304 216.209 425.156V425.008C216.209 424.268 216.801 423.676 217.54 423.676C217.688 423.676 217.836 423.676 218.132 423.824L218.723 423.38C218.28 423.233 217.836 423.085 217.54 423.085ZM158.386 410.51C158.386 410.806 158.238 410.954 158.238 411.25C158.534 411.546 158.682 411.842 158.534 412.138C158.534 412.581 158.238 413.173 157.794 413.321L157.646 414.061C158.682 413.765 159.273 412.877 159.125 411.842C158.977 411.102 158.83 410.806 158.386 410.51ZM174.505 410.067C173.47 410.067 172.583 410.954 172.583 411.99C172.583 413.025 173.47 413.913 174.505 413.913C175.541 413.913 176.428 413.025 176.428 411.99C176.428 410.954 175.541 410.067 174.505 410.067ZM174.505 413.321C173.766 413.321 173.174 412.729 173.174 411.99C173.174 411.25 173.766 410.658 174.505 410.658C175.245 410.658 175.836 411.25 175.836 411.99C175.836 412.729 175.245 413.321 174.505 413.321ZM191.66 410.067C190.625 410.067 189.738 410.954 189.738 411.99C189.738 413.025 190.625 413.913 191.66 413.913C192.695 413.913 193.583 413.025 193.583 411.99C193.583 410.954 192.843 410.067 191.66 410.067ZM191.66 413.321C190.921 413.321 190.329 412.729 190.329 411.99C190.329 411.25 190.921 410.658 191.66 410.658C192.4 410.658 192.991 411.25 192.991 411.99C192.991 412.729 192.4 413.321 191.66 413.321ZM208.963 410.067C207.928 410.067 207.04 410.954 207.04 411.99C207.04 413.025 207.928 413.913 208.963 413.913C209.998 413.913 210.885 413.025 210.885 411.99C210.885 410.954 209.998 410.215 208.963 410.067ZM208.963 413.321C208.223 413.321 207.632 412.729 207.632 411.99C207.632 411.25 208.223 410.658 208.963 410.658C209.702 410.658 210.294 411.25 210.294 411.99C210.294 412.729 209.702 413.321 208.963 413.321ZM226.118 410.067C225.082 410.067 224.195 410.954 224.195 411.99C224.195 413.025 225.082 413.913 226.118 413.913C227.153 413.913 228.04 413.025 228.04 411.99C228.04 410.954 227.153 410.067 226.118 410.067ZM226.118 413.321C225.378 413.321 224.787 412.729 224.787 411.99C224.787 411.25 225.378 410.658 226.118 410.658C226.857 410.658 227.449 411.25 227.449 411.99C227.449 412.729 226.857 413.321 226.118 413.321ZM165.928 449.268C164.893 449.268 164.006 450.156 164.006 451.192C164.006 452.227 164.893 453.115 165.928 453.115C166.963 453.115 167.851 452.227 167.851 451.192C167.851 450.156 166.963 449.268 165.928 449.268ZM165.928 452.523C165.189 452.523 164.597 451.931 164.597 451.192C164.597 450.452 165.189 449.86 165.928 449.86C166.667 449.86 167.259 450.452 167.259 451.192C167.259 451.931 166.667 452.523 165.928 452.523ZM183.083 449.268C182.048 449.268 181.16 450.156 181.16 451.044L181.9 450.452C182.048 450.008 182.491 449.86 182.787 449.712L183.526 449.121C183.379 449.268 183.231 449.268 183.083 449.268ZM157.203 436.25C156.168 436.25 155.28 437.138 155.28 438.174C155.28 439.209 156.168 440.097 157.203 440.097C158.238 440.097 159.125 439.209 159.125 438.174C159.125 437.138 158.238 436.25 157.203 436.25ZM157.203 439.505C156.463 439.505 155.872 438.913 155.872 438.174C155.872 437.434 156.463 436.842 157.203 436.842C157.942 436.842 158.534 437.434 158.534 438.174C158.534 438.913 157.942 439.505 157.203 439.505ZM174.505 436.25C173.47 436.25 172.583 437.138 172.583 438.174C172.583 439.209 173.47 440.097 174.505 440.097C175.541 440.097 176.428 439.209 176.428 438.174C176.428 437.138 175.541 436.25 174.505 436.25ZM174.505 439.505C173.766 439.505 173.174 438.913 173.174 438.174C173.174 437.434 173.766 436.842 174.505 436.842C175.245 436.842 175.836 437.434 175.836 438.174C175.836 438.913 175.245 439.505 174.505 439.505ZM191.66 436.25C190.625 436.25 189.738 437.138 189.738 438.174C189.738 439.209 190.625 440.097 191.66 440.097C192.695 440.097 193.583 439.209 193.583 438.174C193.583 437.138 192.695 436.25 191.66 436.25ZM191.66 439.505C190.921 439.505 190.329 438.913 190.329 438.174C190.329 437.434 190.921 436.842 191.66 436.842C192.4 436.842 192.991 437.434 192.991 438.174C192.991 438.913 192.4 439.505 191.66 439.505ZM157.203 462.434C156.168 462.434 155.28 463.322 155.28 464.357C155.28 465.393 156.168 466.281 157.203 466.281C158.238 466.281 159.125 465.393 159.125 464.357C159.125 463.322 158.238 462.434 157.203 462.434ZM157.203 465.689C156.463 465.689 155.872 465.097 155.872 464.357C155.872 463.618 156.463 463.026 157.203 463.026C157.942 463.026 158.534 463.618 158.534 464.357C158.534 465.097 157.942 465.689 157.203 465.689Z" fill="black"/>
<path d="M180.865 344.533C152.47 374.119 111.062 448.973 106.034 459.624C102.485 466.872 140.64 486.103 142.266 480.778C144.337 473.973 177.463 390.244 186.336 358.586C191.069 341.278 186.632 338.32 180.865 344.533Z" fill="#F7A9A0"/>
<path d="M143.893 475.748C142.562 479.447 137.978 494.831 134.872 496.755C131.766 498.678 115.055 498.234 106.774 498.234C98.4921 498.234 96.7175 495.867 96.8653 493.056C97.0132 490.246 114.612 489.654 114.612 489.654C114.612 489.654 91.0978 496.311 85.3302 497.494C79.4148 498.678 65.8093 502.08 63.8868 497.198C62.9995 494.979 66.6966 492.76 66.6966 492.76C66.6966 492.76 60.929 494.388 60.0417 491.577C59.0065 488.322 63.591 486.547 63.591 486.547C63.591 486.547 60.0417 487.287 59.8938 484.624C59.746 478.707 82.0767 475.896 82.0767 475.896C82.0767 475.896 65.0699 484.18 64.4783 479.447C63.7389 472.79 98.7879 465.541 102.337 462.582C104.703 460.511 106.626 458.144 108.105 455.334L143.893 475.748Z" fill="#F7A9A0"/>
<path d="M97.0133 494.536C96.8654 493.648 97.1611 492.908 97.7527 492.317C98.3442 491.725 99.0837 491.281 99.8231 490.985C101.302 490.393 102.929 489.802 104.555 489.506C107.809 488.618 111.21 488.027 114.612 487.139C111.062 487.139 107.661 487.435 104.26 488.322C102.485 488.766 100.858 489.358 99.3794 490.246C98.64 490.689 97.9006 491.281 97.309 492.021C96.8654 492.76 96.7175 493.648 97.0133 494.536Z" fill="#263238"/>
<path d="M66.6967 492.612C69.0628 492.021 71.429 491.281 73.7952 490.689C76.1614 490.098 78.5275 489.21 80.8937 488.618L87.9922 486.399C90.3584 485.66 92.7246 484.92 95.0908 484.18C92.5767 484.476 90.0626 484.92 87.6965 485.512C85.3303 486.104 82.9641 486.695 80.5979 487.435C78.2318 488.175 75.8656 488.914 73.4994 489.802C71.1332 490.689 68.9149 491.577 66.6967 492.612Z" fill="#263238"/>
<path d="M89.471 478.263C87.2527 478.411 84.8865 478.707 82.6682 479.151C80.4499 479.594 78.2317 480.186 76.0134 480.778C73.7951 481.518 71.7247 482.257 69.6543 483.145C67.5839 484.032 65.5135 485.068 63.5909 486.251C65.8092 485.512 67.8796 484.624 69.95 484.032C72.0204 483.293 74.2387 482.553 76.3091 481.961C78.5274 481.37 80.5978 480.63 82.8161 480.038C85.0344 479.447 87.2527 478.855 89.471 478.263Z" fill="#263238"/>
<path d="M85.9218 472.79C82.2247 473.085 78.6754 473.825 75.1261 475.009C71.5769 476.192 68.3234 477.819 65.2178 479.742C68.767 478.559 72.0205 477.228 75.5698 476.044C79.1191 475.009 82.5204 473.825 85.9218 472.79Z" fill="#263238"/>
<path d="M150.992 376.338L184.118 377.522C186.484 369.237 188.407 360.805 189.886 352.225C191.512 339.947 187.372 336.545 175.984 346.456C168.442 353.113 150.992 376.338 150.992 376.338Z" fill="#FFC727"/>
<path opacity="0.2" d="M174.505 357.847C173.47 357.847 172.583 358.734 172.583 359.77C172.583 360.805 173.47 361.693 174.505 361.693C175.541 361.693 176.428 360.805 176.428 359.77C176.428 358.734 175.541 357.847 174.505 357.847ZM174.505 361.101C173.766 361.101 173.174 360.509 173.174 359.77C173.174 359.03 173.766 358.438 174.505 358.438C175.245 358.438 175.836 359.03 175.836 359.77C175.836 360.509 175.245 361.101 174.505 361.101ZM183.083 370.717C182.048 370.717 181.16 371.604 181.16 372.64C181.16 373.675 182.048 374.563 183.083 374.563C184.118 374.563 185.005 373.675 185.005 372.64C185.005 371.604 184.118 370.717 183.083 370.717ZM183.083 373.971C182.343 373.971 181.752 373.38 181.752 372.64C181.752 371.9 182.343 371.456 183.083 371.456C183.822 371.456 184.414 372.048 184.414 372.64C184.414 373.38 183.822 373.971 183.083 373.971ZM165.78 370.717C164.745 370.717 163.858 371.604 163.858 372.64C163.858 373.675 164.745 374.563 165.78 374.563C166.815 374.563 167.703 373.675 167.703 372.64C167.703 371.604 166.963 370.717 165.78 370.717ZM165.78 373.971C165.041 373.971 164.449 373.38 164.449 372.64C164.597 371.9 165.189 371.456 165.928 371.456C166.52 371.456 166.963 372.048 167.111 372.64C167.111 373.38 166.52 373.971 165.78 373.971ZM183.083 344.681C182.048 344.681 181.16 345.568 181.16 346.604C181.16 347.639 182.048 348.527 183.083 348.527C184.118 348.527 185.005 347.639 185.005 346.604C185.005 345.42 184.118 344.681 183.083 344.681C183.083 344.533 183.083 344.533 183.083 344.681ZM183.083 347.787C182.343 347.639 181.9 347.048 181.9 346.308C181.9 345.716 182.491 345.273 183.083 345.125C183.822 345.273 184.266 345.864 184.266 346.604C184.118 347.344 183.674 347.787 183.083 347.787Z" fill="black"/>
<path d="M180.125 377.374C180.421 377.374 183.822 377.374 184.118 377.374C184.562 375.451 185.005 373.527 185.597 371.604C185.893 370.717 186.188 369.681 186.484 368.794C186.78 367.906 187.076 366.575 187.372 365.687C187.372 365.687 187.372 365.539 187.519 365.539C187.519 365.539 187.667 365.539 187.667 365.687C187.372 366.871 187.224 367.758 186.928 368.794C186.78 369.829 186.484 370.717 186.336 371.604C185.893 373.527 185.449 375.746 184.857 377.67C183.379 377.67 181.9 377.522 180.421 377.374C180.273 377.374 179.977 377.374 180.125 377.374Z" fill="#263238"/>
<path d="M154.393 373.379C159.273 373.232 164.006 373.084 168.886 373.232C171.252 373.232 173.766 373.379 176.132 373.527C178.498 373.675 180.865 373.971 183.379 374.119C183.527 374.119 183.527 374.267 183.379 374.267C181.012 374.119 178.498 374.119 176.132 374.119C173.766 374.119 171.252 373.971 168.886 373.823C164.153 373.675 159.273 373.527 154.393 373.379C154.245 373.527 154.393 373.379 154.393 373.379Z" fill="#263238"/>
<path d="M195.505 335.953C185.597 336.988 188.259 346.9 192.548 351.486C195.505 354.592 201.421 357.699 204.822 356.367C208.223 355.036 205.561 347.492 205.561 347.492C205.561 347.492 211.181 352.965 213.252 350.598C215.322 348.231 205.709 334.917 195.505 335.953Z" fill="white"/>
<path d="M190.329 341.13C190.921 342.61 198.463 348.231 205.118 347.048C207.336 346.604 206.301 337.432 206.301 337.432V336.545L207.188 323.822L191.365 316.574L189.146 315.686C189.146 315.686 189.146 319.237 189.146 323.527V323.97C189.146 324.266 189.146 324.414 189.146 324.71C189.146 325.302 189.146 326.041 189.146 326.633C189.146 327.225 189.146 327.669 189.146 328.112V329.74C189.294 333.734 189.59 337.432 190.329 341.13Z" fill="#F7A9A0"/>
<path d="M189.146 323.527C192.696 330.183 198.907 334.917 206.301 336.545L207.336 323.822L191.512 316.574L189.294 315.686C189.146 315.686 189.146 319.237 189.146 323.527Z" fill="#263238"/>
<path d="M220.202 298.082C229.371 318.497 218.28 326.337 213.843 328.408C209.85 330.183 195.949 335.805 184.71 316.426C173.47 297.047 179.977 286.248 188.85 281.662C197.871 277.076 211.033 277.668 220.202 298.082Z" fill="#F7A9A0"/>
<path d="M212.069 294.68C211.625 294.828 211.033 294.828 210.59 294.976C209.998 295.124 209.554 295.124 208.963 294.976C208.667 294.828 208.519 294.384 208.667 294.088C208.963 293.496 209.554 293.053 210.294 292.905C211.033 292.757 211.773 292.905 212.364 293.201C212.808 293.496 212.808 294.088 212.512 294.384C212.364 294.532 212.216 294.68 212.069 294.68Z" fill="#263238"/>
<path d="M197.872 300.893C198.315 300.597 198.759 300.301 199.202 300.005C199.646 299.71 200.09 299.414 200.386 298.822C200.533 298.526 200.386 298.082 200.09 297.934C199.498 297.639 198.611 297.786 198.167 298.23C197.576 298.526 197.132 299.118 196.836 299.857C196.688 300.301 196.984 300.745 197.428 300.893C197.576 301.041 197.724 301.041 197.872 300.893Z" fill="#263238"/>
<path d="M203.195 305.035V305.183C203.787 306.662 204.378 308.29 203.195 309.325C203.195 309.325 203.195 309.473 203.195 309.325C204.674 308.585 204.083 306.219 203.195 305.035Z" fill="#263238"/>
<path d="M201.421 304.148C199.055 304.887 200.829 309.473 202.9 308.881C204.97 308.29 203.343 303.408 201.421 304.148Z" fill="#263238"/>
<path d="M200.533 304.739C200.238 305.183 199.942 305.775 199.498 306.071C199.055 306.366 198.315 306.071 197.871 305.627C198.167 306.514 198.907 307.254 199.794 307.106C200.829 306.958 200.977 305.923 200.977 304.887C200.977 304.739 200.681 304.591 200.533 304.739Z" fill="#263238"/>
<path d="M211.329 301.189C211.329 301.189 211.477 301.189 211.477 301.337C211.921 302.816 212.808 304.295 214.139 304.443C214.139 304.443 214.287 304.443 214.139 304.591C212.512 304.887 211.477 302.668 211.329 301.189Z" fill="#263238"/>
<path d="M212.069 299.266C214.287 298.23 216.209 302.816 214.139 303.704C211.921 304.591 210.146 300.153 212.069 299.266Z" fill="#263238"/>
<path d="M213.104 299.266C213.547 299.414 214.139 299.71 214.583 299.562C215.026 299.414 215.322 298.822 215.322 298.082C215.322 298.082 215.322 298.082 215.47 298.082C215.914 298.97 215.914 300.005 215.174 300.449C214.435 300.893 213.547 300.449 213.104 299.562C212.956 299.414 212.956 299.118 213.104 299.266Z" fill="#263238"/>
<path d="M207.78 315.834C208.223 315.982 208.667 316.426 209.259 316.278C209.85 316.13 210.294 315.834 210.738 315.39M210.885 315.538C210.59 316.278 209.998 316.722 209.259 316.87C208.667 316.87 208.076 316.574 207.78 315.982C207.632 315.982 207.78 315.834 207.78 315.982L210.885 315.538Z" fill="#263238"/>
<path d="M211.773 308.438C211.773 308.438 212.956 310.509 213.252 311.396C213.252 311.544 213.104 311.692 212.66 311.84C211.033 312.875 208.963 312.875 207.336 311.84C207.188 311.84 207.336 311.692 207.484 311.692C209.111 312.136 210.738 311.988 212.364 311.248C212.364 310.952 210.294 307.846 210.59 307.698C211.329 307.55 212.216 307.402 213.104 307.402C210.885 303.112 208.076 299.266 206.005 294.976C206.005 294.828 206.005 294.828 206.153 294.828H206.301C209.407 298.97 212.216 303.26 214.583 307.846C214.583 308.438 212.216 308.438 211.773 308.438Z" fill="#263238"/>
<path d="M212.512 311.248C212.364 312.284 211.921 313.319 211.181 314.059C210.738 314.503 210.294 314.799 209.702 314.947C208.519 315.242 207.928 314.207 207.632 313.319C207.484 312.875 207.484 312.284 207.484 311.692C209.111 311.988 210.886 311.84 212.512 311.248Z" fill="#263238"/>
<path d="M211.181 314.059C210.738 314.503 210.294 314.799 209.702 314.947C208.519 315.242 207.928 314.207 207.632 313.319C208.963 312.728 210.294 313.023 211.181 314.059Z" fill="#FF9ABB"/>
<path d="M184.858 316.722C187.076 315.686 190.625 306.81 186.484 295.42C186.484 295.42 189.59 305.923 189.442 307.698C189.294 309.473 191.365 302.668 188.111 293.496C191.808 294.384 195.505 294.828 199.35 294.68C204.083 294.236 206.745 293.053 206.893 292.609C207.04 292.165 199.942 292.609 197.428 291.425C197.428 291.425 211.033 292.165 216.357 290.538C216.949 290.39 212.808 277.52 202.456 275.449C192.104 273.378 181.604 284.177 179.386 288.911C179.386 288.911 175.541 291.13 173.47 298.822C171.4 306.514 182.344 317.905 184.858 316.722Z" fill="#263238"/>
<path d="M188.703 316.426C188.703 316.426 181.752 311.396 179.386 314.207C177.02 317.018 183.822 325.302 187.815 325.302C189.886 325.45 191.66 323.97 191.956 321.899V321.751L188.703 316.426Z" fill="#F7A9A0"/>
<path d="M181.308 316.574C183.97 316.87 186.484 318.349 187.963 320.568C187.076 319.828 185.745 319.976 185.005 320.864C185.005 321.012 184.857 321.012 184.857 321.16C184.857 321.16 184.857 321.308 185.005 321.308C185.745 320.716 186.928 320.716 187.667 321.308C188.407 321.751 188.998 322.195 189.442 322.787C189.59 322.935 190.033 322.787 189.886 322.491C188.85 319.237 184.857 315.686 181.308 316.574Z" fill="#263238"/>
<path d="M179.829 287.875C177.167 290.686 167.999 290.834 163.858 286.544C158.09 280.626 164.893 268.496 173.618 271.159C182.343 273.822 181.9 285.804 179.829 287.875Z" fill="#263238"/>
<path d="M163.858 274.709C162.379 276.928 161.492 279.443 161.196 282.106C160.9 284.621 162.379 287.135 164.597 288.171C165.78 288.763 166.963 289.206 168.294 289.502C169.625 289.798 170.808 289.946 172.139 289.946C174.801 289.946 177.463 289.206 179.681 287.727C177.611 289.65 174.949 290.834 172.139 290.982C170.66 291.13 169.329 290.982 167.998 290.686C166.668 290.39 165.189 289.946 164.006 289.354C162.675 288.615 161.639 287.579 160.9 286.248C160.161 284.916 160.013 283.437 160.161 281.958C160.604 279.295 161.935 276.78 163.858 274.709Z" fill="#263238"/>
<path d="M170.365 250.005C174.21 259.176 182.048 270.271 194.026 272.194C196.688 272.638 206.153 274.265 212.956 272.786C220.498 271.159 226.709 271.455 230.85 274.117C234.843 276.78 330.969 353.853 332.448 355.184C336.589 358.734 336.736 364.8 336.884 369.533C337.328 383.291 343.391 391.723 349.455 397.492C355.518 403.262 366.757 410.362 376.37 405.777C376.37 405.777 375.778 404.297 375.187 403.262C372.673 404.297 366.314 406.072 358.919 400.303C349.307 392.907 342.652 383.735 342.356 373.527C342.06 361.249 347.384 350.598 360.25 345.716C368.976 342.462 382.877 339.799 391.602 348.379C403.433 359.918 407.722 372.492 402.102 386.545C402.546 387.137 403.581 388.321 403.581 388.321C403.581 388.321 413.933 374.563 400.771 354.296C391.306 339.503 379.328 338.764 369.567 339.947C358.476 341.278 354.335 338.616 349.898 335.065C338.511 325.894 253.625 257.401 251.554 255.034C249.336 252.667 246.822 248.525 246.822 238.466C246.822 229.442 243.568 218.643 239.427 213.022C222.421 189.648 201.864 194.974 201.864 194.974C201.864 194.974 202.604 196.157 203.935 197.933C204.526 197.933 205.118 197.933 205.857 197.933C224.343 199.412 235.435 208.88 240.611 227.815C244.456 241.277 233.956 252.963 225.822 259.768C213.991 269.975 200.238 271.159 188.111 264.058C178.055 258.141 171.844 244.235 169.625 230.625C168.59 224.264 170.365 220.122 172.435 217.312C171.548 215.98 170.365 213.909 170.365 213.909C161.048 222.785 166.52 240.833 170.365 250.005Z" fill="#B2B2B2"/>
<path d="M391.454 348.527C382.729 339.947 368.828 342.61 360.102 345.864C347.236 350.746 341.912 361.397 342.208 373.675C342.504 383.883 349.159 393.054 358.771 400.451C366.166 406.22 372.525 404.445 375.039 403.41C372.525 399.563 366.461 390.54 363.356 385.658C360.99 381.96 365.426 375.007 372.525 370.717C380.806 365.539 385.391 365.687 387.905 368.35C393.081 373.971 399.884 383.735 401.954 386.841C407.574 372.64 403.285 360.214 391.454 348.527Z" fill="#CCCCCC"/>
<path d="M169.625 230.773C171.844 244.531 178.055 258.437 188.111 264.206C200.238 271.307 213.843 270.123 225.822 259.916C233.808 253.111 244.308 241.277 240.611 227.963C235.287 209.027 224.195 199.56 205.857 198.081C205.266 198.081 204.674 198.081 203.935 198.081C207.78 203.406 215.618 214.945 218.428 220.566C221.238 226.483 217.688 230.478 208.519 236.691C198.463 243.643 191.808 243.939 188.85 240.241C183.822 234.028 175.837 222.341 172.731 217.608C170.365 220.122 168.59 224.412 169.625 230.773Z" fill="#CCCCCC"/>
<path d="M249.779 270.863C252.737 267.313 257.913 266.721 261.61 269.68L331.856 326.929C335.405 329.888 335.997 335.065 333.039 338.764C330.082 342.314 324.906 342.906 321.208 339.947L250.963 282.55C247.413 279.591 246.97 274.413 249.779 270.863Z" fill="#CCCCCC"/>
<path d="M267.822 299.562C269.448 303.408 273.146 299.266 273.146 299.266C273.146 299.266 269.301 306.514 272.554 309.917C275.807 313.319 279.948 307.994 280.244 307.55C280.096 307.994 276.695 314.651 280.244 317.757C283.793 320.864 287.343 314.947 287.638 314.651C287.638 315.094 286.751 320.716 290.005 322.343C295.624 325.302 298.286 310.952 302.575 308.29C302.575 308.29 308.047 315.094 308.195 315.242C308.342 315.39 311.004 301.781 307.011 296.011C305.828 294.236 303.61 293.644 301.688 294.384C301.688 294.384 303.019 290.094 300.357 287.579C298.878 286.248 295.624 287.431 295.624 287.431C296.216 285.36 295.476 283.289 293.997 281.958C291.927 280.331 288.969 281.662 288.969 281.662C288.969 281.662 288.378 277.964 285.716 276.928C280.244 275.005 264.42 291.277 267.822 299.562Z" fill="#F7A9A0"/>
<path d="M288.378 281.958C288.378 281.958 288.378 281.81 288.378 281.958C281.575 286.1 276.103 292.165 272.998 299.562C272.85 299.857 273.293 300.005 273.441 299.857C277.434 293.053 282.462 287.135 288.378 281.958Z" fill="#263238"/>
<path d="M295.624 287.431C295.624 287.431 295.624 287.283 295.624 287.431C288.082 292.017 282.61 299.118 279.948 307.55C279.8 307.846 280.096 308.142 280.244 307.846C282.167 302.372 290.004 292.313 295.624 287.431Z" fill="#263238"/>
<path d="M287.638 315.242C290.3 307.106 295.18 300.597 301.244 294.532C301.392 294.532 301.244 294.384 301.096 294.384C297.251 296.455 293.849 300.745 291.335 304.148C288.969 307.402 287.638 311.1 287.195 315.094C287.342 315.39 287.638 315.39 287.638 315.242Z" fill="#263238"/>
<path d="M272.998 299.266C272.85 299.562 273.441 299.414 273.293 299.71C272.85 300.893 270.779 308.29 273.145 309.917C275.068 311.1 277.878 309.473 278.765 308.438L280.983 305.775L279.948 309.029C279.505 310.509 279.209 311.988 279.209 313.615C279.061 315.094 279.652 316.426 280.688 317.461C281.723 318.349 283.202 318.497 284.385 317.757C285.568 316.87 286.603 315.834 287.195 314.503L289.117 310.804L288.526 314.799C288.378 315.982 288.378 317.018 288.378 318.201C288.378 319.237 288.821 320.272 289.413 321.16C290.004 321.899 291.04 322.195 292.075 322.047C293.11 321.603 293.997 321.012 294.589 320.124C296.068 318.201 297.251 316.278 298.434 314.059C299.026 313.023 299.617 311.988 300.357 310.952C300.948 309.917 301.687 309.029 302.723 308.29C301.835 309.029 301.096 310.065 300.652 311.1C300.061 312.136 299.617 313.171 299.026 314.355C297.99 316.574 296.807 318.645 295.476 320.716C294.737 321.751 293.702 322.639 292.519 323.231C291.04 323.675 289.561 323.231 288.674 322.047C287.786 321.012 287.343 319.68 287.195 318.349C287.047 317.166 287.047 315.834 287.195 314.503L288.526 314.947C287.786 316.574 286.603 317.905 285.124 318.941C284.237 319.532 283.35 319.68 282.314 319.68C281.427 319.532 280.54 319.089 279.8 318.497C278.469 317.166 277.878 315.39 277.878 313.615C277.878 311.988 278.174 310.213 278.765 308.586L279.8 309.177C278.617 310.509 275.66 312.728 272.554 311.248C268.709 308.585 272.258 300.745 272.998 299.266Z" fill="#263238"/>
<path d="M273.145 299.266C272.406 299.858 271.667 300.153 270.927 300.597C270.336 300.893 269.448 300.745 269.005 300.301C268.413 299.71 268.117 298.97 267.969 298.23C267.822 297.343 267.674 296.455 267.526 295.568C267.23 296.455 267.082 297.343 267.082 298.378C267.082 299.414 267.526 300.449 268.265 301.189C269.153 301.929 270.336 302.076 271.371 301.485C272.11 300.893 272.702 300.153 273.145 299.266Z" fill="#263238"/>
</svg>
